<svg xmlns="http://www.w3.org/2000/svg" width="48" height="48"><rect id="backgroundrect" width="100%" height="100%" x="0" y="0" fill="none" stroke="none"/><g class="currentLayer" style=""><title>Layer 1</title><path fill="#112f41" fill-opacity="1" stroke="none" stroke-opacity="1" stroke-width="1" stroke-dasharray="none" stroke-linejoin="miter" stroke-linecap="butt" stroke-dashoffset="" fill-rule="nonzero" opacity="1" marker-start="" marker-mid="" marker-end="" d="M3.5348824599616435,23.98837113198382 C3.5348824599616435,12.75234342383146 12.826865398266312,3.6511609802280542 24.2984492727165,3.6511609802280542 C35.7700331471667,3.6511609802280542 45.062016085471356,12.75234342383146 45.062016085471356,23.98837113198382 C45.062016085471356,35.22439884013617 35.7700331471667,44.32558128373958 24.2984492727165,44.32558128373958 C12.826865398266312,44.32558128373958 3.5348824599616435,35.22439884013617 3.5348824599616435,23.98837113198382 z" id="svg_2" class=""/><path d="M15.328900575637817,27.83388650417328 h-3.7785160541534424 v8.615725040435791 h9.446290135383606 v-3.4462900161743164 h-5.6677740812301645 v-5.169435024261475 zm-3.7785160541534424,-6.892580032348633 h3.7785160541534424 v-5.169435024261475 h5.6677740812301645 v-3.4462900161743164 H11.550384521484375 v8.615725040435791 zm22.671096324920654,12.062015056610107 h-5.6677740812301645 v3.4462900161743164 h9.446290135383606 V27.83388650417328 h-3.7785160541534424 v5.169435024261475 zm-5.6677740812301645,-20.6777400970459 v3.4462900161743164 h5.6677740812301645 v5.169435024261475 h3.7785160541534424 V12.325581431388855 H28.553706765174866 z" fill="#ffffff" id="svg_1" class="" fill-opacity="1" stroke="#112f41" stroke-opacity="1"/></g></svg>